<svg width="53" height="54" viewBox="0 0 53 54" fill="none" xmlns="http://www.w3.org/2000/svg">
<path d="M4.1834 0.759872C2.49121 1.52011 0.832206 3.37113 0.400864 4.99077C-0.0968376 6.70958 -0.0968376 46.4403 0.400864 48.1591C0.832206 49.7788 2.49121 51.6298 4.1834 52.39C5.14562 52.8528 6.34011 53.0181 8.59636 53.0181H11.6489V51.3654V49.7127H8.46364C5.41106 49.7127 5.24516 49.6796 4.31612 48.7541C3.70014 48.1405 3.3539 47.3068 3.3539 46.4373V26.575L3.5117 6.58649C3.51726 5.8817 3.7411 5.19595 4.15241 4.62361L4.18448 4.57898C4.27209 4.45707 4.36957 4.34256 4.47593 4.2366C4.98981 3.72467 5.68561 3.43724 6.41097 3.43724H12.6112H19.944V9.61831C19.944 15.1714 20.0103 15.9316 20.6407 17.1877C21.1384 18.2123 21.7025 18.7742 22.7311 19.2701C23.9919 19.8981 24.7551 19.9642 30.3293 19.9642H36.534V25.7486V31.533H38.193H39.852V23.9306C39.852 18.1132 39.7525 16.0638 39.3875 15.2375C38.7903 13.8823 25.7173 0.925144 24.4896 0.462387C23.9256 0.264065 20.0103 0.131851 14.5356 0.131851C6.53919 0.131851 5.3447 0.197956 4.1834 0.759872ZM30.5616 16.5927C26.8122 16.6257 24.3237 16.5596 23.9256 16.3283C23.2952 15.9977 23.262 15.6011 23.262 9.61831V3.27197L29.898 9.88274L36.534 16.4935L30.5616 16.5927Z" fill="#E5E5E5"/>
<path d="M45.2801 36.2432C44.3477 36.2432 43.5848 37.0031 43.5848 37.932V44.6874V51.4428C43.5848 52.3717 44.3477 53.1316 45.2801 53.1316C46.2125 53.1316 46.9754 52.3717 46.9754 51.4428V46.3762H50.366C51.2984 46.3762 52.0613 45.6163 52.0613 44.6874C52.0613 43.7585 51.2984 42.9986 50.366 42.9986H46.9754V39.6209H50.366C51.2984 39.6209 52.0613 38.8609 52.0613 37.932C52.0613 37.0031 51.2984 36.2432 50.366 36.2432H45.2801Z" fill="#CE0E2D"/>
<path fill-rule="evenodd" clip-rule="evenodd" d="M31.7177 36.2432H35.1083C37.9161 36.2432 40.1942 38.5126 40.1942 41.3097V48.0651C40.1942 50.8622 37.9161 53.1316 35.1083 53.1316H31.7177C30.7853 53.1316 30.0224 52.3717 30.0224 51.4428V37.932C30.0224 37.0031 30.7853 36.2432 31.7177 36.2432ZM36.8036 48.0651C36.8036 48.994 36.0407 49.7539 35.1083 49.7539H33.413V39.6209H35.1083C36.0407 39.6209 36.8036 40.3808 36.8036 41.3097V48.0651Z" fill="#CE0E2D"/>
<path fill-rule="evenodd" clip-rule="evenodd" d="M18.1553 36.2432H21.5459C24.82 36.2432 27.4795 38.8925 27.4795 42.1541C27.4795 45.4157 24.82 48.0651 21.5459 48.0651H19.8506V51.4428C19.8506 52.3717 19.0877 53.1316 18.1553 53.1316C17.2229 53.1316 16.46 52.3717 16.46 51.4428V46.3762V37.932C16.46 37.0031 17.2229 36.2432 18.1553 36.2432ZM24.0889 42.1541C24.0889 43.558 22.9551 44.6874 21.5459 44.6874H19.8506V39.6209H21.5459C22.9551 39.6209 24.0889 40.7503 24.0889 42.1541Z" fill="#CE0E2D"/>
</svg>
