<svg width="53" height="54" viewBox="0 0 53 54" fill="none" xmlns="http://www.w3.org/2000/svg">
<path d="M4.09822 1.04329C2.44072 1.80504 0.815714 3.65976 0.393214 5.28263C-0.0942873 7.00486 -0.0942873 46.8149 0.393214 48.5371C0.815714 50.16 2.44072 52.0147 4.09822 52.7765C5.04072 53.2402 6.21072 53.4058 8.42073 53.4058H11.4107V51.7498V50.0938H8.29073C5.30072 50.0938 5.13822 50.0607 4.22822 49.1333C3.62414 48.5177 3.28572 47.6896 3.28572 46.8272V26.9099L3.44037 6.87006C3.44577 6.17073 3.66399 5.48963 4.06601 4.91737L4.10186 4.86634C4.18596 4.74663 4.27971 4.634 4.38218 4.52957C4.88656 4.01558 5.57644 3.72599 6.29657 3.72599H12.3532H19.5357V9.9194C19.5357 15.4835 19.6007 16.2453 20.2182 17.5038C20.7057 18.5306 21.2582 19.0936 22.2657 19.5904C23.5008 20.2197 24.2483 20.2859 29.7083 20.2859H35.7858V26.0819V31.8779H37.4108H39.0358V24.2603C39.0358 18.4312 38.9383 16.3778 38.5808 15.5498C37.9958 14.1919 25.1908 1.20889 23.9883 0.745209C23.4358 0.54649 19.6007 0.414009 14.2382 0.414009C6.40572 0.414009 5.23572 0.480247 4.09822 1.04329ZM29.9358 16.9077C26.2633 16.9408 23.8258 16.8746 23.4358 16.6427C22.8183 16.3115 22.7857 15.9141 22.7857 9.9194V3.56039L29.2858 10.1844L35.7858 16.8083L29.9358 16.9077Z" fill="#E5E5E5"/>
<path d="M16.8383 37.4419C16.3508 37.9718 16.2858 39.0316 16.2858 45.1919C16.2858 53.6375 16.1883 53.4056 19.6983 53.4056C22.7208 53.4056 24.4433 52.5445 25.3533 50.6236C25.9383 49.4312 26.0358 48.5701 26.0358 45.1257C26.0358 40.0914 25.5158 38.6011 23.3058 37.5412C21.4533 36.6139 17.6183 36.5476 16.8383 37.4419ZM22.1683 40.4889C22.7208 40.8201 22.7858 41.2175 22.7858 45.1257C22.7858 49.8618 22.6883 50.0936 20.5433 50.0936H19.5358V45.1257V40.1577H20.5433C21.0958 40.1577 21.8108 40.3233 22.1683 40.4889Z" fill="#3CB4E5"/>
<path d="M31.3333 37.5083C29.5458 38.6012 29.2858 39.5286 29.2858 45.1258C29.2858 50.7231 29.5458 51.6504 31.3333 52.7434C32.7308 53.6376 35.5908 53.6376 36.9883 52.7434C38.7758 51.6504 39.0358 50.7231 39.0358 45.1258C39.0358 39.5286 38.7758 38.6012 36.9883 37.5083C36.3058 37.0446 35.3633 36.8459 34.1608 36.8459C32.9583 36.8459 32.0158 37.0446 31.3333 37.5083ZM35.6233 45.1258V49.9282H34.1608H32.6983L32.6008 45.4901C32.5683 43.0393 32.5683 40.5303 32.5683 40.2819C32.5683 40.0335 32.5683 40.2819 34.1527 40.2819H35.6152L35.6233 45.1258Z" fill="#3CB4E5"/>
<path d="M44.3334 37.5083C42.5459 38.6012 42.2859 39.5286 42.2859 45.1258C42.2859 50.7231 42.5459 51.6504 44.3334 52.7434C45.7309 53.6376 48.5909 53.6376 49.9884 52.7434C51.9059 51.5842 52.7184 48.504 51.4509 47.3449C50.2809 46.2519 48.9484 47.0468 48.7209 48.9346C48.6234 49.862 48.5584 49.9282 47.1609 49.9282H45.6984V45.1258V40.3234H47.1609C48.5584 40.3234 48.6234 40.3897 48.7209 41.317C48.8509 42.4762 49.6309 43.4698 50.4109 43.4698C51.8734 43.4698 52.4909 41.0521 51.5484 39.1311C50.7684 37.6407 49.2734 36.8459 47.1609 36.8459C45.9584 36.8459 45.0159 37.0446 44.3334 37.5083Z" fill="#3CB4E5"/>
</svg>
