<svg width="12" height="12" viewBox="0 0 12 12" fill="none" xmlns="http://www.w3.org/2000/svg">
<path d="M6 0C2.68548 0 0 2.68548 0 6C0 9.31452 2.68548 12 6 12C9.31452 12 12 9.31452 12 6C12 2.68548 9.31452 0 6 0ZM8.78226 4.08145C8.69274 5.02984 8.30081 7.33306 8.10242 8.39516C8.01774 8.84516 7.85323 8.99516 7.69355 9.00968C7.34516 9.04113 7.08145 8.77984 6.74274 8.55726C6.21532 8.21129 5.91532 7.99597 5.40484 7.65726C4.8121 7.26774 5.19677 7.05242 5.53306 6.70161C5.62258 6.60968 7.15645 5.21371 7.18548 5.0879C7.19032 5.07097 7.19274 5.0129 7.15645 4.98145C7.12016 4.95 7.06936 4.9621 7.03306 4.96935C6.97984 4.98145 6.13548 5.5379 4.50242 6.64113C4.2629 6.80564 4.04516 6.88548 3.85161 6.88064C3.63629 6.87581 3.225 6.75968 2.91774 6.66048C2.54274 6.53952 2.24274 6.47419 2.26935 6.26613C2.28387 6.15726 2.43145 6.04839 2.71452 5.93468C4.46371 5.17258 5.62984 4.66935 6.2129 4.42742C7.87984 3.73548 8.22581 3.61452 8.45081 3.60968C8.50161 3.60968 8.61048 3.62177 8.68306 3.67984C8.73145 3.72097 8.76048 3.77903 8.76774 3.84194C8.77984 3.91935 8.78226 3.99919 8.77742 4.07903L8.78226 4.08145Z" fill="#38D430"/>
</svg>
