<svg width="12" height="12" viewBox="0 0 12 12" fill="none" xmlns="http://www.w3.org/2000/svg">
<path d="M8.14234 2.84863H1.37402V10.1513H3.25784V7.77551H6.86759L8.51459 10.1513H10.624L8.80784 7.76457C9.3719 7.67701 9.77796 7.46894 10.0261 7.14051C10.2743 6.81207 10.3984 6.28651 10.3984 5.58582V5.03838C10.3984 4.62232 10.3533 4.29388 10.2743 4.04207C10.1953 3.79026 10.06 3.57126 9.86821 3.3742C9.66515 3.18807 9.43959 3.0567 9.16884 2.96913C8.89809 2.89251 8.55965 2.84863 8.14234 2.84863ZM7.83777 6.16613H3.25784V4.45807H7.83777C8.09715 4.45807 8.27765 4.50182 8.3679 4.57851C8.45815 4.65513 8.51459 4.79745 8.51459 5.00551V5.61863C8.51459 5.83757 8.45815 5.97988 8.3679 6.05651C8.27765 6.13313 8.09721 6.16601 7.83777 6.16601V6.16613Z" stroke="#38D430" stroke-width="0.75" stroke-linecap="round" stroke-linejoin="round"/>
<path d="M10.2454 2.72363C10.5904 2.72363 10.8702 2.44382 10.8702 2.09863C10.8702 1.75345 10.5904 1.47363 10.2454 1.47363C9.90011 1.47363 9.62024 1.75345 9.62024 2.09863C9.62024 2.44382 9.90011 2.72363 10.2454 2.72363Z" fill="#38D430"/>
</svg>
