<svg width="11" height="11" viewBox="0 0 11 11" fill="none" xmlns="http://www.w3.org/2000/svg">
<g clip-path="url(#clip0_100_265)">
<path d="M10.3167 5.27657C10.3176 5.27657 10.3182 5.27657 10.3191 5.27657C10.3805 5.27657 10.439 5.25083 10.4806 5.20573C10.5228 5.15997 10.5437 5.09859 10.5382 5.03655C10.3174 2.60709 8.3939 0.682967 5.96422 0.461646C5.90262 0.456806 5.84058 0.476826 5.79482 0.519286C5.74906 0.561526 5.72354 0.621147 5.7242 0.683407C5.76248 3.91213 6.1884 5.23147 10.3167 5.27657ZM10.3167 5.72273C6.1884 5.76783 5.7627 7.08717 5.72442 10.3159C5.72376 10.3781 5.74928 10.4378 5.79504 10.48C5.83596 10.5176 5.88942 10.5385 5.94442 10.5385C5.95102 10.5385 5.95784 10.5383 5.96444 10.5376C8.39412 10.3163 10.3176 8.39243 10.5382 5.96275C10.5437 5.90071 10.5231 5.83933 10.4806 5.79357C10.4381 5.74781 10.379 5.72515 10.3167 5.72273ZM5.02108 0.462746C2.5991 0.690447 0.681803 2.61413 0.462023 5.03699C0.456523 5.09903 0.477203 5.16041 0.519663 5.20617C0.561243 5.25127 0.619983 5.27679 0.681143 5.27679C0.682023 5.27679 0.682903 5.27679 0.683783 5.27679C4.79844 5.22949 5.22326 3.91081 5.26198 0.684287C5.26264 0.622027 5.2369 0.562187 5.19114 0.519947C5.14494 0.477706 5.08312 0.457026 5.02108 0.462746ZM0.683563 5.72251C0.615143 5.71481 0.561463 5.74737 0.519443 5.79313C0.477203 5.83889 0.456303 5.90027 0.461803 5.96231C0.681583 8.38517 2.5991 10.3088 5.02108 10.5365C5.0279 10.5372 5.03494 10.5374 5.04176 10.5374C5.09676 10.5374 5.15 10.5167 5.19092 10.4791C5.23668 10.4369 5.26242 10.377 5.26176 10.3148C5.22304 7.08849 4.79844 5.76981 0.683563 5.72251Z" fill="#38D430"/>
</g>
<defs>
<clipPath id="clip0_100_265">
<rect width="11" height="11" fill="white"/>
</clipPath>
</defs>
</svg>
