<svg width="12" height="12" viewBox="0 0 12 12" fill="none" xmlns="http://www.w3.org/2000/svg">
<path d="M0.84375 0.84375C0 1.6875 0 3.04554 0 5.75893V6.24107C0 8.95446 0 10.3125 0.84375 11.1562C1.6875 12 3.04554 12 5.75893 12H6.23839C8.95446 12 10.3125 12 11.1536 11.1562C11.9946 10.3125 12 8.95446 12 6.24107V5.76161C12 3.04554 12 1.6875 11.1562 0.846429C10.3125 0.00535711 8.95446 0 6.24107 0H5.75893C3.04554 0 1.6875 0 0.84375 0.84375ZM2.025 3.65089H3.39375C3.43929 5.94107 4.44911 6.91071 5.25 7.11161V3.65089H6.54107V5.625C7.33125 5.53929 8.16161 4.63929 8.44018 3.65089H9.73125C9.62679 4.16518 9.41518 4.65 9.1125 5.07857C8.80982 5.50714 8.42411 5.86875 7.97411 6.13929C8.475 6.38839 8.91696 6.73929 9.27054 7.17054C9.62411 7.60179 9.88393 8.10536 10.0286 8.64375H8.60893C8.47768 8.175 8.2125 7.75714 7.84286 7.43839C7.47321 7.11964 7.02054 6.91875 6.53839 6.85982V8.64375H6.38304C3.64821 8.64375 2.08929 6.76875 2.02232 3.64821L2.025 3.65089Z" fill="#38D430"/>
</svg>
